<?xml version="1.0" encoding="UTF-8"?>
<!DOCTYPE svg PUBLIC "-//W3C//DTD SVG 1.1//EN" "http://www.w3.org/Graphics/SVG/1.1/DTD/svg11.dtd">
<svg version="1.1" xmlns="http://www.w3.org/2000/svg" xmlns:xlink="http://www.w3.org/1999/xlink" x="0" y="0" width="1042" height="1042" viewBox="0, 0, 521, 521">
  <defs>
    <filter id="Shadow_1">
      <feGaussianBlur in="SourceAlpha" stdDeviation="2.5"/>
      <feOffset dx="0" dy="2" result="offsetblur"/>
      <feFlood flood-color="#000000"/>
      <feComposite in2="offsetblur" operator="in"/>
    </filter>
    <radialGradient id="Gradient_1" gradientUnits="userSpaceOnUse" cx="260.5" cy="260.5" r="251.766">
      <stop offset="0" stop-color="#FF8626"/>
      <stop offset="1" stop-color="#E12E00"/>
    </radialGradient>
  </defs>
  <g id="Image">
    <g>
      <path d="M260.5,8.734 C399.538,8.734 512.266,121.463 512.266,260.5 C512.266,399.538 399.538,512.266 260.5,512.266 C121.463,512.266 8.734,399.538 8.734,260.5 C8.734,121.463 121.463,8.734 260.5,8.734 z" filter="url(#Shadow_1)" fill="rgba(0,0,0,0.65)"/>
      <path d="M260.5,8.734 C121.463,8.734 8.734,121.463 8.734,260.5 C8.734,399.538 121.463,512.266 260.5,512.266 C399.538,512.266 512.266,399.538 512.266,260.5 C512.266,121.463 399.538,8.734 260.5,8.734 z" fill="#00508A"/>
    </g>
    <path d="M260.5,50.695 C183.061,50.695 115.42,92.992 79.082,155.598 L441.918,155.598 C405.58,92.992 337.939,50.695 260.5,50.695 z" fill="#FFFFFF"/>
    <path d="M260.5,470.305 C376.186,470.305 470.305,376.186 470.305,260.5 C470.305,238.575 466.885,217.448 460.633,197.559 L421.609,197.559 C408.916,229.407 381.138,260.5 338.023,260.5 C286.054,260.5 292.831,212.035 260.5,212.035 C228.169,212.035 234.967,260.5 182.998,260.5 C139.841,260.5 112.084,229.407 99.37,197.559 L60.367,197.559 C54.115,217.448 50.695,238.575 50.695,260.5 C50.695,376.186 144.814,470.305 260.5,470.305 z" fill="#FFFFFF"/>
    <path d="M376.06,301.223 C344.317,326.295 309.468,341.736 260.521,341.736 C211.532,341.736 176.683,326.295 144.94,301.223 L134.617,311.566 C158.262,347.653 201.755,386.383 260.521,386.383 C319.266,386.383 362.738,347.653 386.383,311.566 L376.06,301.223 z" fill="url(#Gradient_1)"/>
  </g>
</svg>
