<?xml version="1.0" encoding="UTF-8"?>
<!DOCTYPE svg PUBLIC "-//W3C//DTD SVG 1.1//EN" "http://www.w3.org/Graphics/SVG/1.1/DTD/svg11.dtd">
<svg version="1.1" xmlns="http://www.w3.org/2000/svg" xmlns:xlink="http://www.w3.org/1999/xlink" x="0" y="0" width="521" height="521" viewBox="0, 0, 521, 521">
  <g id="Image">
    <path d="M438.9,101.9 L355,18 C346,9 333.8,3.9 321.1,3.9 L117,3.9 C90.5,4 69,25.5 69,52 L69,468 C69,494.5 90.5,516 117,516 L405,516 C431.5,516 453,494.5 453,468 L453,135.9 C453,123.2 447.9,110.9 438.9,101.9 z" fill="#00508A"/>
    <path d="M416.3,124.6 L332.4,40.7 C330.3,38.6 327.8,37.2 325,36.5 L325,132 L420.5,132 C419.8,129.2 418.4,126.7 416.3,124.6 z" fill="#FFFFFF"/>
    <path d="M405,484 C413.8,484 421,476.8 421,468 L421,164 L317,164 C303.7,164 293,153.3 293,140 L293,36 L117,36 C108.2,36 101,43.2 101,52 L101,468 C101,476.8 108.2,484 117,484 L405,484 z" fill="#FFFFFF"/>
    <path d="M357,240 C357,233.4 351.6,228 345,228 L177,228 C170.4,228 165,233.4 165,240 L165,248 C165,254.6 170.4,260 177,260 L345,260 C351.6,260 357,254.6 357,248 L357,240 z" fill="#EA660B"/>
    <path d="M357,304 C357,297.4 351.6,292 345,292 L177,292 C170.4,292 165,297.4 165,304 L165,312 C165,318.6 170.4,324 177,324 L345,324 C351.6,324 357,318.6 357,312 L357,304 z" fill="#EA660B"/>
    <path d="M357,368 C357,361.4 351.6,356 345,356 L177,356 C170.4,356 165,361.4 165,368 L165,376 C165,382.6 170.4,388 177,388 L345,388 C351.6,388 357,382.6 357,376 L357,368 z" fill="#EA660B"/>
    <path d="M202.079,109.8 L197.379,127.9 C196.779,130.3 194.579,132 192.179,132 L175.079,132 C172.579,132 170.479,130.3 169.879,127.9 L165.179,109.8 C164.479,107.1 165.879,104.3 168.479,103.4 C171.779,102.2 176.979,100.8 183.579,100.8 C190.179,100.8 195.379,102.1 198.679,103.4 C201.279,104.3 202.779,107.1 202.079,109.8 z" fill="#EA660B"/>
  </g>
</svg>
