<?xml version="1.0" encoding="UTF-8"?>
<!DOCTYPE svg PUBLIC "-//W3C//DTD SVG 1.1//EN" "http://www.w3.org/Graphics/SVG/1.1/DTD/svg11.dtd">
<svg version="1.1" xmlns="http://www.w3.org/2000/svg" xmlns:xlink="http://www.w3.org/1999/xlink" x="0" y="0" width="1042" height="1042" viewBox="0, 0, 521, 521">
  <g id="Image">
    <path d="M470.5,87.725 L278.5,7.725 C266.688,2.825 253.412,2.825 241.6,7.725 L49.6,87.725 C31.7,95.125 20,112.625 20,132.025 C20,330.525 134.5,467.725 241.5,512.325 C253.3,517.225 266.6,517.225 278.4,512.325 C364.1,476.625 500,353.325 500,132.025 C500,112.625 488.3,95.125 470.5,87.725 z" fill="#00508A"/>
    <path d="M266.2,482.825 C364,444.025 468,308.025 467.9,132.025 C467.9,125.525 464.1,119.725 458.1,117.225 L266.1,37.225 C262.1,35.525 257.6,35.625 253.8,37.225 L61.8,117.225 C55.9,119.725 52,125.525 52,132.025 C52,308.025 156,444.025 253.9,482.825 C257.9,484.425 262.3,484.425 266.2,482.825 z" fill="#FFFFFF"/>
    <g>
      <path d="M298.185,98.45 L288.446,135.958 C287.202,140.931 282.643,144.454 277.67,144.454 L242.235,144.454 C237.053,144.454 232.702,140.931 231.459,135.958 L221.719,98.45 C220.268,92.855 223.169,87.052 228.558,85.188 C235.396,82.701 246.172,79.8 259.849,79.8 C273.526,79.8 284.301,82.494 291.139,85.188 C296.527,87.052 299.636,92.855 298.185,98.45 z" fill="#00508A"/>
      <path d="M305.024,406.594 L283.472,191.908 C283.057,186.106 278.084,181.755 272.282,181.755 L247.622,181.755 C241.82,181.755 237.053,186.106 236.432,191.908 L214.881,406.594 C214.466,410.738 216.331,414.675 219.854,416.954 L253.839,439.335 C257.569,441.822 262.542,441.822 266.272,439.335 L300.258,416.954 C303.366,414.675 305.438,410.738 305.024,406.594 z" fill="#EA660A"/>
    </g>
  </g>
</svg>
