<?xml version="1.0" encoding="UTF-8"?>
<!DOCTYPE svg PUBLIC "-//W3C//DTD SVG 1.1//EN" "http://www.w3.org/Graphics/SVG/1.1/DTD/svg11.dtd">
<svg version="1.1" xmlns="http://www.w3.org/2000/svg" xmlns:xlink="http://www.w3.org/1999/xlink" x="0" y="0" width="1024" height="1024" viewBox="0, 0, 1024, 1024">
  <g id="Layer_1">
    <path d="M1017.4,512 C1017.4,791.125 791.125,1017.4 512,1017.4 C232.875,1017.4 6.6,791.125 6.6,512 C6.6,232.875 232.875,6.6 512,6.6 C791.125,6.6 1017.4,232.875 1017.4,512 z" fill="#00508A"/>
    <path d="M586.553,195.872 L567.565,268.996 C565.141,278.692 556.253,285.56 546.557,285.56 L477.474,285.56 C467.374,285.56 458.89,278.692 456.466,268.996 L437.478,195.872 C434.65,184.965 440.306,173.653 450.81,170.017 C464.142,165.169 485.15,159.513 511.814,159.513 C538.477,159.513 559.485,164.765 572.817,170.017 C583.321,173.653 589.381,184.965 586.553,195.872 z" fill="#EA660A"/>
    <path d="M599.885,796.616 L557.869,378.075 C557.061,366.763 547.365,358.279 536.053,358.279 L487.978,358.279 C476.666,358.279 467.374,366.763 466.162,378.075 L424.146,796.616 C423.338,804.696 426.974,812.372 433.842,816.815 L500.098,860.447 C507.37,865.295 517.065,865.295 524.337,860.447 L590.593,816.815 C596.653,812.372 600.693,804.696 599.885,796.616 z" fill="#FFFFFF"/>
  </g>
</svg>
