<?xml version="1.0" encoding="UTF-8"?>
<!DOCTYPE svg PUBLIC "-//W3C//DTD SVG 1.1//EN" "http://www.w3.org/Graphics/SVG/1.1/DTD/svg11.dtd">
<svg version="1.1" xmlns="http://www.w3.org/2000/svg" xmlns:xlink="http://www.w3.org/1999/xlink" x="0" y="0" width="250.3" height="250.3" viewBox="0, 0, 250.3, 250.3">
  <g id="Background">
    <rect x="0" y="0" width="250.3" height="250.3" fill="#000000" fill-opacity="0"/>
  </g>
  <g id="Layer_1">
    <path d="M250.2,125.1 C250.2,194.191 194.191,250.2 125.1,250.2 C56.009,250.2 0,194.191 0,125.1 C0,56.009 56.009,0 125.1,0 C194.191,0 250.2,56.009 250.2,125.1 z" fill="#FFFFFF"/>
    <path d="M143.6,46.9 L138.9,65 C138.3,67.4 136.1,69.1 133.7,69.1 L116.6,69.1 C114.1,69.1 112,67.4 111.4,65 L106.7,46.9 C106,44.2 107.4,41.4 110,40.5 C113.3,39.3 118.5,37.9 125.1,37.9 C131.7,37.9 136.9,39.2 140.2,40.5 C142.8,41.4 144.3,44.2 143.6,46.9 z" fill="#00508A"/>
    <path d="M146.9,195.6 L136.5,92 C136.3,89.2 133.9,87.1 131.1,87.1 L119.2,87.1 C116.4,87.1 114.1,89.2 113.8,92 L103.4,195.6 C103.2,197.6 104.1,199.5 105.8,200.6 L122.2,211.4 C124,212.6 126.4,212.6 128.2,211.4 L144.6,200.6 C146.1,199.5 147.1,197.6 146.9,195.6 z" fill="#EA660B"/>
  </g>
</svg>
