<?xml version="1.0" encoding="UTF-8"?>
<!DOCTYPE svg PUBLIC "-//W3C//DTD SVG 1.1//EN" "http://www.w3.org/Graphics/SVG/1.1/DTD/svg11.dtd">
<svg version="1.1" xmlns="http://www.w3.org/2000/svg" xmlns:xlink="http://www.w3.org/1999/xlink" x="0" y="0" width="520" height="120" viewBox="0, 0, 520, 120">
  <g id="Layer_1">
    <path d="M44.5,89.85 C43.7,89.25 42.9,87.75 43.7,86.35 L47.9,77.85 C48.6,76.25 50.2,75.75 51.7,76.75 C54.7,78.55 59.3,80.95 66.1,80.95 C71,80.95 73.3,79.15 73.3,76.25 C73.3,73.25 69.6,70.65 61,67.25 C48.4,62.45 42.8,56.55 42.8,46.65 C42.8,36.75 50.3,27.55 66.2,27.55 C75.8,27.55 82,30.05 85.5,32.35 C86.9,33.45 87.8,35.15 86.9,36.85 L83.2,44.35 C82.2,45.95 80.5,46.15 79.1,45.65 C76,44.25 71.5,42.35 66.1,42.35 C61.7,42.35 59.9,44.45 59.9,46.55 C59.9,49.55 63.2,51.05 69.2,53.65 C81.8,58.75 90.8,63.25 90.8,76.25 C90.8,86.55 82,95.75 65.7,95.75 C54.9,95.85 48.2,92.45 44.5,89.85 z" fill="#000000"/>
    <path d="M103.5,7.15 C103.5,5.55 105.1,4.05 106.6,4.05 L118,4.05 C119.7,4.05 121.1,5.65 121.1,7.15 L121.1,36.35 C124.4,33.55 130,30.85 137.8,30.85 C158.6,30.85 164.2,45.25 164.2,61.65 L164.2,94.45 C164.2,96.15 162.6,97.55 161.1,97.55 L149.7,97.55 C148,97.55 146.6,96.15 146.6,94.45 L146.6,61.55 C146.6,52.55 142.5,47.05 134.7,47.05 C127.1,47.05 122.8,51.85 121.1,58.45 L121.1,94.45 C121.1,96.25 120.3,97.55 117.7,97.55 L106.5,97.55 C104.9,97.55 103.4,96.15 103.4,94.45 L103.4,7.15 z" fill="#000000"/>
    <path d="M254.6,95.85 C248.1,95.85 241.9,94.25 238.9,93.15 L238.9,116.15 C238.9,117.75 237.3,119.25 235.8,119.25 L224.4,119.25 C222.7,119.25 221.3,117.65 221.3,116.15 L221.3,32.15 C221.3,30.45 222.7,29.05 224.4,29.05 L229.6,29.05 C231.2,29.05 232.1,30.35 232.7,32.15 L234.4,37.35 C234.4,37.35 241.9,27.65 255.7,27.65 C273.5,27.65 286.9,42.05 286.9,61.85 C286.9,80.85 274.1,95.85 254.6,95.85 z M238.9,76.05 C238.9,76.05 244.3,79.75 252.5,79.75 C263.2,79.75 268.7,70.95 268.7,61.85 C268.7,52.65 263.5,43.75 253.3,43.75 C244.8,43.75 240.3,49.15 238.9,52.75 L238.9,76.05 z" fill="#000000"/>
    <path d="M321.5,53.05 C328.1,53.05 334.1,54.85 334.1,54.85 C334.4,46.55 332,42.55 325.1,42.55 C319.2,42.55 310.6,43.85 306.7,44.95 C304.6,45.65 303.3,44.15 303,42.15 L301.6,34.85 C301,32.45 302.3,31.35 303.7,30.85 C305.1,30.25 315.4,27.65 326,27.65 C346.3,27.65 350.6,38.25 350.6,56.05 L350.6,91.25 C350.6,92.95 349.2,94.35 347.5,94.35 L342.7,94.35 C341.6,94.35 340.7,93.95 339.9,92.05 L338.1,87.65 C334.3,91.35 327.8,95.85 317.6,95.85 C304.6,95.85 295.6,87.55 295.6,73.55 C295.5,61.95 305,53.05 321.5,53.05 z M321.9,82.65 C327.7,82.65 332.8,78.15 333.6,75.75 L333.6,66.15 C333.6,66.15 329.2,64.15 324,64.15 C316.5,64.15 312.4,67.65 312.4,73.45 C312.5,79.05 315.9,82.65 321.9,82.65 z" fill="#000000"/>
    <path d="M366.9,32.15 C366.9,30.35 368.5,29.05 370,29.05 L375.2,29.05 C376.8,29.05 377.5,29.75 378,31.15 L380.4,37.55 C382.7,34.25 388.7,27.65 398.8,27.65 C406.6,27.65 412.9,29.75 411.1,34.05 L406.9,43.65 C406.2,45.25 404.6,45.75 403.1,45.05 C401.5,44.35 400,43.75 397,43.75 C389.9,43.75 385.7,48.25 384.6,50.55 L384.6,91.25 C384.6,93.65 383,94.35 380.9,94.35 L370,94.35 C368.4,94.35 366.9,92.95 366.9,91.25 L366.9,32.15 z" fill="#000000"/>
    <path d="M443.8,27.65 C450.3,27.65 456.5,29.25 459.5,30.35 L459.5,7.15 C459.5,5.55 461.1,4.05 462.6,4.05 L474,4.05 C475.7,4.05 477.1,5.65 477.1,7.15 L477.1,91.15 C477.1,92.85 475.7,94.25 474,94.25 L468.8,94.25 C467.2,94.25 466.3,92.95 465.7,91.15 L464,86.05 C464,86.05 456.5,95.75 442.7,95.75 C424.9,95.75 411.5,81.35 411.5,61.55 C411.5,42.55 424.3,27.65 443.8,27.65 z M460.4,47.35 C460.4,47.35 455,43.65 446.8,43.65 C436.1,43.65 430.6,52.45 430.6,61.55 C430.6,70.75 435.8,79.65 446,79.65 C454.5,79.65 459,74.25 460.4,70.65 L460.4,47.35 z" fill="#000000"/>
    <path d="M203.2,5.95 L200.5,16.35 C200.1,17.75 198.9,18.65 197.5,18.65 L187.7,18.65 C186.3,18.65 185,17.65 184.7,16.35 L182,5.95 C181.6,4.45 182.4,2.85 183.9,2.25 C185.8,1.55 188.8,0.75 192.6,0.75 C196.4,0.75 199.4,1.55 201.3,2.25 C202.8,2.85 203.6,4.35 203.2,5.95 z" fill="#000000"/>
    <path d="M205.1,91.45 L199.1,31.95 C199,30.35 197.6,29.15 196,29.15 L189.1,29.15 C187.5,29.15 186.1,30.35 186,31.95 L180,91.45 C179.9,92.55 180.4,93.65 181.4,94.35 L190.8,100.55 C191.8,101.25 193.2,101.25 194.2,100.55 L203.6,94.35 C204.7,93.65 205.2,92.55 205.1,91.45 z" fill="#000000"/>
  </g>
</svg>
