<?xml version="1.0" encoding="UTF-8"?>
<!DOCTYPE svg PUBLIC "-//W3C//DTD SVG 1.1//EN" "http://www.w3.org/Graphics/SVG/1.1/DTD/svg11.dtd">
<svg version="1.1" xmlns="http://www.w3.org/2000/svg" xmlns:xlink="http://www.w3.org/1999/xlink" x="0" y="0" width="434.3" height="118.5" viewBox="0, 0, 434.3, 118.5">
  <g id="Layer_1">
    <path d="M1.7,89.1 C0.9,88.5 0.1,87 0.9,85.6 L5.1,77.1 C5.8,75.5 7.4,75 8.9,76 C11.9,77.8 16.5,80.2 23.3,80.2 C28.2,80.2 30.5,78.4 30.5,75.5 C30.5,72.5 26.8,69.9 18.2,66.5 C5.6,61.7 0,55.8 0,45.9 C0,36 7.5,26.8 23.4,26.8 C33,26.8 39.2,29.3 42.7,31.6 C44.1,32.7 45,34.4 44.1,36.1 L40.4,43.6 C39.4,45.2 37.7,45.4 36.3,44.9 C33.2,43.5 28.7,41.6 23.3,41.6 C18.9,41.6 17.1,43.7 17.1,45.8 C17.1,48.8 20.4,50.3 26.4,52.9 C39,58 48,62.5 48,75.5 C48,85.8 39.2,95 22.9,95 C12.1,95.1 5.4,91.7 1.7,89.1 z" fill="#00508A"/>
    <path d="M60.7,6.4 C60.7,4.8 62.3,3.3 63.8,3.3 L75.2,3.3 C76.9,3.3 78.3,4.9 78.3,6.4 L78.3,35.6 C81.6,32.8 87.2,30.1 95,30.1 C115.8,30.1 121.4,44.5 121.4,60.9 L121.4,93.7 C121.4,95.4 119.8,96.8 118.3,96.8 L106.9,96.8 C105.2,96.8 103.8,95.4 103.8,93.7 L103.8,60.8 C103.8,51.8 99.7,46.3 91.9,46.3 C84.3,46.3 80,51.1 78.3,57.7 L78.3,93.7 C78.3,95.5 77.5,96.8 74.9,96.8 L63.7,96.8 C62.1,96.8 60.6,95.4 60.6,93.7 L60.6,6.4 z" fill="#00508A"/>
    <path d="M211.8,95.1 C205.3,95.1 199.1,93.5 196.1,92.4 L196.1,115.4 C196.1,117 194.5,118.5 193,118.5 L181.6,118.5 C179.9,118.5 178.5,116.9 178.5,115.4 L178.5,31.4 C178.5,29.7 179.9,28.3 181.6,28.3 L186.8,28.3 C188.4,28.3 189.3,29.6 189.9,31.4 L191.6,36.6 C191.6,36.6 199.1,26.9 212.9,26.9 C230.7,26.9 244.1,41.3 244.1,61.1 C244.1,80.1 231.3,95.1 211.8,95.1 z M196.1,75.3 C196.1,75.3 201.5,79 209.7,79 C220.4,79 225.9,70.2 225.9,61.1 C225.9,51.9 220.7,43 210.5,43 C202,43 197.5,48.4 196.1,52 L196.1,75.3 z" fill="#00508A"/>
    <path d="M278.7,52.3 C285.3,52.3 291.3,54.1 291.3,54.1 C291.6,45.8 289.2,41.8 282.3,41.8 C276.4,41.8 267.8,43.1 263.9,44.2 C261.8,44.9 260.5,43.4 260.2,41.4 L258.8,34.1 C258.2,31.7 259.5,30.6 260.9,30.1 C262.3,29.5 272.6,26.9 283.2,26.9 C303.5,26.9 307.8,37.5 307.8,55.3 L307.8,90.5 C307.8,92.2 306.4,93.6 304.7,93.6 L299.9,93.6 C298.8,93.6 297.9,93.2 297.1,91.3 L295.3,86.9 C291.5,90.6 285,95.1 274.8,95.1 C261.8,95.1 252.8,86.8 252.8,72.8 C252.7,61.2 262.2,52.3 278.7,52.3 z M279.1,81.9 C284.9,81.9 290,77.4 290.8,75 L290.8,65.4 C290.8,65.4 286.4,63.4 281.2,63.4 C273.7,63.4 269.6,66.9 269.6,72.7 C269.7,78.3 273.1,81.9 279.1,81.9 z" fill="#00508A"/>
    <path d="M324.1,31.4 C324.1,29.6 325.7,28.3 327.2,28.3 L332.4,28.3 C334,28.3 334.7,29 335.2,30.4 L337.6,36.8 C339.9,33.5 345.9,26.9 356,26.9 C363.8,26.9 370.1,29 368.3,33.3 L364.1,42.9 C363.4,44.5 361.8,45 360.3,44.3 C358.8,43.6 357.2,43 354.2,43 C347.1,43 342.9,47.5 341.8,49.8 L341.8,90.5 C341.8,92.9 340.2,93.6 338.1,93.6 L327.2,93.6 C325.6,93.6 324.1,92.2 324.1,90.5 L324.1,31.4 z" fill="#00508A"/>
    <path d="M401,26.9 C407.5,26.9 413.7,28.5 416.7,29.6 L416.7,6.4 C416.7,4.8 418.3,3.3 419.8,3.3 L431.2,3.3 C432.9,3.3 434.3,4.9 434.3,6.4 L434.3,90.4 C434.3,92.1 432.9,93.5 431.2,93.5 L426,93.5 C424.4,93.5 423.5,92.2 422.9,90.4 L421.2,85.3 C421.2,85.3 413.7,95 399.9,95 C382.1,95 368.7,80.6 368.7,60.8 C368.7,41.8 381.5,26.9 401,26.9 z M417.6,46.6 C417.6,46.6 412.2,42.9 404,42.9 C393.3,42.9 387.8,51.7 387.8,60.8 C387.8,70 393,78.9 403.2,78.9 C411.7,78.9 416.2,73.5 417.6,69.9 L417.6,46.6 z" fill="#00508A"/>
    <path d="M160.4,5.2 L157.7,15.6 C157.3,17 156.1,17.9 154.7,17.9 L144.9,17.9 C143.5,17.9 142.2,16.9 141.9,15.6 L139.2,5.2 C138.8,3.7 139.6,2.1 141.1,1.5 C143,0.8 146,-0 149.8,-0 C153.6,-0 156.6,0.8 158.5,1.5 C160,2.1 160.8,3.6 160.4,5.2 z" fill="#00508A"/>
    <path d="M162.3,90.7 L156.3,31.2 C156.2,29.6 154.8,28.4 153.2,28.4 L146.3,28.4 C144.7,28.4 143.3,29.6 143.2,31.2 L137.2,90.7 C137.1,91.8 137.6,92.9 138.6,93.6 L148,99.8 C149,100.5 150.4,100.5 151.4,99.8 L160.8,93.6 C161.9,92.9 162.4,91.8 162.3,90.7 z" fill="#EB6608"/>
  </g>
</svg>
