<?xml version="1.0" encoding="UTF-8"?>
<!DOCTYPE svg PUBLIC "-//W3C//DTD SVG 1.1//EN" "http://www.w3.org/Graphics/SVG/1.1/DTD/svg11.dtd">
<svg version="1.1" xmlns="http://www.w3.org/2000/svg" xmlns:xlink="http://www.w3.org/1999/xlink" x="0" y="0" width="434.3" height="118.5" viewBox="0, 0, 434.3, 118.5">
  <g id="Layer_1" transform="translate(-600.7, 0)">
    <path d="M602.4,89.1 C601.6,88.5 600.8,87 601.6,85.6 L605.8,77.1 C606.5,75.5 608.1,75 609.6,76 C612.6,77.8 617.2,80.2 624,80.2 C628.9,80.2 631.2,78.4 631.2,75.5 C631.2,72.5 627.5,69.9 618.9,66.5 C606.3,61.7 600.7,55.8 600.7,45.9 C600.7,36 608.2,26.8 624.1,26.8 C633.7,26.8 639.9,29.3 643.4,31.6 C644.8,32.7 645.7,34.4 644.8,36.1 L641.1,43.6 C640.1,45.2 638.4,45.4 637,44.9 C633.9,43.5 629.4,41.6 624,41.6 C619.6,41.6 617.8,43.7 617.8,45.8 C617.8,48.8 621.1,50.3 627.1,52.9 C639.7,58 648.7,62.5 648.7,75.5 C648.7,85.8 639.9,95 623.6,95 C612.8,95.1 606.1,91.7 602.4,89.1 z" fill="#FFFFFF"/>
    <path d="M661.4,6.4 C661.4,4.8 663,3.3 664.5,3.3 L675.9,3.3 C677.6,3.3 679,4.9 679,6.4 L679,35.6 C682.3,32.8 687.9,30.1 695.7,30.1 C716.5,30.1 722.1,44.5 722.1,60.9 L722.1,93.7 C722.1,95.4 720.5,96.8 719,96.8 L707.6,96.8 C705.9,96.8 704.5,95.4 704.5,93.7 L704.5,60.8 C704.5,51.8 700.4,46.3 692.6,46.3 C685,46.3 680.7,51.1 679,57.7 L679,93.7 C679,95.5 678.2,96.8 675.6,96.8 L664.4,96.8 C662.8,96.8 661.3,95.4 661.3,93.7 L661.3,6.4 z" fill="#FFFFFF"/>
    <path d="M812.5,95.1 C806,95.1 799.8,93.5 796.8,92.4 L796.8,115.4 C796.8,117 795.2,118.5 793.7,118.5 L782.3,118.5 C780.6,118.5 779.2,116.9 779.2,115.4 L779.2,31.4 C779.2,29.7 780.6,28.3 782.3,28.3 L787.5,28.3 C789.1,28.3 790,29.6 790.6,31.4 L792.3,36.6 C792.3,36.6 799.8,26.9 813.6,26.9 C831.4,26.9 844.8,41.3 844.8,61.1 C844.8,80.1 832,95.1 812.5,95.1 z M796.8,75.3 C796.8,75.3 802.2,79 810.4,79 C821.1,79 826.6,70.2 826.6,61.1 C826.6,51.9 821.4,43 811.2,43 C802.7,43 798.2,48.4 796.8,52 L796.8,75.3 z" fill="#FFFFFF"/>
    <path d="M879.4,52.3 C886,52.3 892,54.1 892,54.1 C892.3,45.8 889.9,41.8 883,41.8 C877.1,41.8 868.5,43.1 864.6,44.2 C862.5,44.9 861.2,43.4 860.9,41.4 L859.5,34.1 C858.9,31.7 860.2,30.6 861.6,30.1 C863,29.5 873.3,26.9 883.9,26.9 C904.2,26.9 908.5,37.5 908.5,55.3 L908.5,90.5 C908.5,92.2 907.1,93.6 905.4,93.6 L900.6,93.6 C899.5,93.6 898.6,93.2 897.8,91.3 L896,86.9 C892.2,90.6 885.7,95.1 875.5,95.1 C862.5,95.1 853.5,86.8 853.5,72.8 C853.4,61.2 862.9,52.3 879.4,52.3 z M879.8,81.9 C885.6,81.9 890.7,77.4 891.5,75 L891.5,65.4 C891.5,65.4 887.1,63.4 881.9,63.4 C874.4,63.4 870.3,66.9 870.3,72.7 C870.4,78.3 873.8,81.9 879.8,81.9 z" fill="#FFFFFF"/>
    <path d="M924.8,31.4 C924.8,29.6 926.4,28.3 927.9,28.3 L933.1,28.3 C934.7,28.3 935.4,29 935.9,30.4 L938.3,36.8 C940.6,33.5 946.6,26.9 956.7,26.9 C964.5,26.9 970.8,29 969,33.3 L964.8,42.9 C964.1,44.5 962.5,45 961,44.3 C959.5,43.6 957.9,43 954.9,43 C947.8,43 943.6,47.5 942.5,49.8 L942.5,90.5 C942.5,92.9 940.9,93.6 938.8,93.6 L927.9,93.6 C926.3,93.6 924.8,92.2 924.8,90.5 L924.8,31.4 z" fill="#FFFFFF"/>
    <path d="M1001.7,26.9 C1008.2,26.9 1014.4,28.5 1017.4,29.6 L1017.4,6.4 C1017.4,4.8 1019,3.3 1020.5,3.3 L1031.9,3.3 C1033.6,3.3 1035,4.9 1035,6.4 L1035,90.4 C1035,92.1 1033.6,93.5 1031.9,93.5 L1026.7,93.5 C1025.1,93.5 1024.2,92.2 1023.6,90.4 L1021.9,85.3 C1021.9,85.3 1014.4,95 1000.6,95 C982.8,95 969.4,80.6 969.4,60.8 C969.4,41.8 982.2,26.9 1001.7,26.9 z M1018.3,46.6 C1018.3,46.6 1012.9,42.9 1004.7,42.9 C994,42.9 988.5,51.7 988.5,60.8 C988.5,70 993.7,78.9 1003.9,78.9 C1012.4,78.9 1016.9,73.5 1018.3,69.9 L1018.3,46.6 z" fill="#FFFFFF"/>
    <path d="M761.1,5.2 L758.4,15.6 C758,17 756.8,17.9 755.4,17.9 L745.6,17.9 C744.2,17.9 742.9,16.9 742.6,15.6 L739.9,5.2 C739.5,3.7 740.3,2.1 741.8,1.5 C743.7,0.8 746.7,0 750.5,0 C754.3,0 757.3,0.8 759.2,1.5 C760.7,2.1 761.5,3.6 761.1,5.2 z" fill="#EB6608"/>
    <path d="M763,90.7 L757,31.2 C756.9,29.6 755.5,28.4 753.9,28.4 L747,28.4 C745.4,28.4 744,29.6 743.9,31.2 L737.9,90.7 C737.8,91.8 738.3,92.9 739.3,93.6 L748.7,99.8 C749.7,100.5 751.1,100.5 752.1,99.8 L761.5,93.6 C762.6,92.9 763.1,91.8 763,90.7 z" fill="#FFFFFF"/>
  </g>
</svg>
