<?xml version="1.0" encoding="UTF-8"?>
<!DOCTYPE svg PUBLIC "-//W3C//DTD SVG 1.1//EN" "http://www.w3.org/Graphics/SVG/1.1/DTD/svg11.dtd">
<svg version="1.1" xmlns="http://www.w3.org/2000/svg" xmlns:xlink="http://www.w3.org/1999/xlink" x="0" y="0" width="1920" height="1080" viewBox="0, 0, 1920, 1080">
  <g id="Background">
    <rect x="0" y="0" width="1920" height="1080" fill="#095188"/>
  </g>
  <defs>
    <radialGradient id="Gradient_1" gradientUnits="userSpaceOnUse" cx="95.926" cy="435.78" r="50.545" gradientTransform="matrix(2, 0, 0, 2, 0, 0)">
      <stop offset="0" stop-color="#FF8626"/>
      <stop offset="1" stop-color="#E12E00"/>
    </radialGradient>
  </defs>
  <g id="Layer_1">
    <g opacity="0.45">
      <path d="M926.38,931.287 C924.766,930.077 923.152,927.05 924.766,924.225 L933.241,907.075 C934.653,903.847 937.881,902.838 940.908,904.855 C946.961,908.487 956.242,913.33 969.963,913.33 C979.849,913.33 984.49,909.698 984.49,903.847 C984.49,897.794 977.025,892.547 959.672,885.687 C934.249,876.002 922.95,864.098 922.95,844.123 C922.95,824.148 938.083,805.585 970.164,805.585 C989.534,805.585 1002.044,810.629 1009.106,815.27 C1011.931,817.489 1013.747,820.919 1011.931,824.349 L1004.465,839.482 C1002.448,842.71 999.017,843.114 996.193,842.105 C989.938,839.28 980.858,835.447 969.963,835.447 C961.085,835.447 957.453,839.684 957.453,843.921 C957.453,849.974 964.111,853.001 976.217,858.247 C1001.641,868.537 1019.8,877.617 1019.8,903.847 C1019.8,924.629 1002.044,943.192 969.156,943.192 C947.364,943.393 933.846,936.533 926.38,931.287 z" fill="#FFFFFF"/>
      <path d="M1045.425,764.424 C1045.425,761.195 1048.653,758.169 1051.679,758.169 L1074.681,758.169 C1078.111,758.169 1080.936,761.397 1080.936,764.424 L1080.936,823.34 C1087.594,817.691 1098.894,812.243 1114.632,812.243 C1156.6,812.243 1167.899,841.298 1167.899,874.388 L1167.899,940.569 C1167.899,943.999 1164.671,946.824 1161.644,946.824 L1138.642,946.824 C1135.212,946.824 1132.387,943.999 1132.387,940.569 L1132.387,874.186 C1132.387,856.027 1124.115,844.93 1108.377,844.93 C1093.042,844.93 1084.366,854.615 1080.936,867.932 L1080.936,940.569 C1080.936,944.201 1079.322,946.824 1074.076,946.824 L1051.478,946.824 C1048.249,946.824 1045.223,943.999 1045.223,940.569 L1045.223,764.424 z" fill="#FFFFFF"/>
      <path d="M1350.299,943.393 C1337.184,943.393 1324.674,940.165 1318.621,937.946 L1318.621,984.353 C1318.621,987.581 1315.393,990.608 1312.366,990.608 L1289.364,990.608 C1285.934,990.608 1283.109,987.379 1283.109,984.353 L1283.109,814.866 C1283.109,811.436 1285.934,808.611 1289.364,808.611 L1299.856,808.611 C1303.085,808.611 1304.901,811.234 1306.111,814.866 L1309.541,825.358 C1309.541,825.358 1324.674,805.786 1352.518,805.786 C1388.433,805.786 1415.47,834.841 1415.47,874.792 C1415.47,913.128 1389.644,943.393 1350.299,943.393 z M1318.621,903.443 C1318.621,903.443 1329.516,910.909 1346.062,910.909 C1367.651,910.909 1378.748,893.153 1378.748,874.792 C1378.748,856.229 1368.256,838.271 1347.676,838.271 C1330.525,838.271 1321.446,849.167 1318.621,856.431 L1318.621,903.443 z" fill="#FFFFFF"/>
      <path d="M1485.283,857.036 C1498.6,857.036 1510.706,860.668 1510.706,860.668 C1511.311,843.921 1506.469,835.85 1492.547,835.85 C1480.642,835.85 1463.29,838.473 1455.421,840.693 C1451.184,842.105 1448.561,839.078 1447.955,835.043 L1445.131,820.314 C1443.92,815.471 1446.543,813.252 1449.368,812.243 C1452.193,811.032 1472.975,805.786 1494.363,805.786 C1535.322,805.786 1543.998,827.174 1543.998,863.089 L1543.998,934.112 C1543.998,937.542 1541.173,940.367 1537.743,940.367 L1528.058,940.367 C1525.839,940.367 1524.023,939.56 1522.409,935.726 L1518.777,926.848 C1511.109,934.314 1497.994,943.393 1477.414,943.393 C1451.184,943.393 1433.025,926.647 1433.025,898.399 C1432.823,874.994 1451.991,857.036 1485.283,857.036 z M1486.09,916.76 C1497.793,916.76 1508.083,907.68 1509.697,902.838 L1509.697,883.468 C1509.697,883.468 1500.819,879.432 1490.327,879.432 C1475.194,879.432 1466.922,886.494 1466.922,898.197 C1467.124,909.496 1473.984,916.76 1486.09,916.76 z" fill="#FFFFFF"/>
      <path d="M1576.886,814.866 C1576.886,811.234 1580.115,808.611 1583.141,808.611 L1593.633,808.611 C1596.862,808.611 1598.274,810.024 1599.283,812.848 L1604.125,825.762 C1608.766,819.103 1620.872,805.786 1641.251,805.786 C1656.989,805.786 1669.701,810.024 1666.069,818.7 L1657.594,838.07 C1656.182,841.298 1652.954,842.307 1649.927,840.894 C1646.901,839.482 1643.672,838.271 1637.619,838.271 C1623.293,838.271 1614.819,847.351 1612.6,851.992 L1612.6,934.112 C1612.6,938.955 1609.371,940.367 1605.134,940.367 L1583.141,940.367 C1579.913,940.367 1576.886,937.542 1576.886,934.112 L1576.886,814.866 z" fill="#FFFFFF"/>
      <path d="M1732.047,805.786 C1745.162,805.786 1757.672,809.015 1763.725,811.234 L1763.725,764.424 C1763.725,761.195 1766.954,758.169 1769.98,758.169 L1792.982,758.169 C1796.412,758.169 1799.237,761.397 1799.237,764.424 L1799.237,933.91 C1799.237,937.34 1796.412,940.165 1792.982,940.165 L1782.49,940.165 C1779.262,940.165 1777.446,937.542 1776.235,933.91 L1772.805,923.62 C1772.805,923.62 1757.672,943.192 1729.828,943.192 C1693.913,943.192 1666.876,914.137 1666.876,874.186 C1666.876,835.85 1692.702,805.786 1732.047,805.786 z M1765.541,845.535 C1765.541,845.535 1754.646,838.07 1738.1,838.07 C1716.511,838.07 1705.414,855.825 1705.414,874.186 C1705.414,892.749 1715.906,910.707 1736.486,910.707 C1753.637,910.707 1762.716,899.811 1765.541,892.547 L1765.541,845.535 z" fill="#FFFFFF"/>
      <path d="M1246.589,762.002 L1241.141,782.986 C1240.334,785.811 1237.913,787.627 1235.088,787.627 L1215.315,787.627 C1212.49,787.627 1209.867,785.609 1209.262,782.986 L1203.814,762.002 C1203.007,758.976 1204.621,755.748 1207.648,754.537 C1211.481,753.125 1217.534,751.51 1225.202,751.51 C1232.869,751.51 1238.922,753.125 1242.755,754.537 C1245.782,755.748 1247.396,758.774 1246.589,762.002 z" fill="#FFFFFF"/>
      <path d="M1250.423,934.516 L1238.317,814.463 C1238.115,811.234 1235.29,808.813 1232.062,808.813 L1218.14,808.813 C1214.911,808.813 1212.086,811.234 1211.885,814.463 L1199.778,934.516 C1199.577,936.735 1200.586,938.955 1202.603,940.367 L1221.57,952.877 C1223.587,954.289 1226.412,954.289 1228.43,952.877 L1247.396,940.367 C1249.616,938.955 1250.625,936.735 1250.423,934.516 z" fill="#FFFFFF"/>
    </g>
    <g opacity="0.45">
      <g>
        <path d="M191.853,770.469 C247.68,770.469 292.943,815.732 292.943,871.559 C292.943,927.386 247.68,972.649 191.853,972.649 C136.026,972.649 90.763,927.386 90.763,871.559 C90.763,815.732 136.026,770.469 191.853,770.469 z" fill-opacity="0" stroke="#FFFFFF" stroke-width="2"/>
        <g>
          <path d="M191.853,770.469 C136.026,770.469 90.763,815.732 90.763,871.559 C90.763,927.386 136.026,972.649 191.853,972.649 C247.68,972.649 292.943,927.386 292.943,871.559 C292.943,815.732 247.68,770.469 191.853,770.469 z" fill="#00508A"/>
          <path d="M191.853,770.469 C136.026,770.469 90.763,815.732 90.763,871.559 C90.763,927.386 136.026,972.649 191.853,972.649 C247.68,972.649 292.943,927.386 292.943,871.559 C292.943,815.732 247.68,770.469 191.853,770.469 z" fill-opacity="0" stroke="#FFFFFF" stroke-width="2"/>
        </g>
      </g>
      <g>
        <path d="M191.853,787.317 C160.759,787.317 133.6,804.301 119.009,829.438 L264.696,829.438 C250.106,804.301 222.946,787.317 191.853,787.317 z" fill="#FFFFFF"/>
        <path d="M191.853,787.317 C160.759,787.317 133.6,804.301 119.009,829.438 L264.696,829.438 C250.106,804.301 222.946,787.317 191.853,787.317 z" fill-opacity="0" stroke="#FFFFFF" stroke-width="2"/>
      </g>
      <g>
        <path d="M191.853,955.801 C238.303,955.801 276.094,918.01 276.094,871.559 C276.094,862.756 274.721,854.273 272.211,846.287 L256.542,846.287 C251.445,859.074 240.292,871.559 222.98,871.559 C202.113,871.559 204.834,852.099 191.853,852.099 C178.871,852.099 181.601,871.559 160.734,871.559 C143.405,871.559 132.26,859.074 127.155,846.287 L111.495,846.287 C108.984,854.273 107.611,862.756 107.611,871.559 C107.611,918.01 145.402,955.801 191.853,955.801 z" fill="#FFFFFF"/>
        <path d="M191.853,955.801 C238.303,955.801 276.094,918.01 276.094,871.559 C276.094,862.756 274.721,854.273 272.211,846.287 L256.542,846.287 C251.445,859.074 240.292,871.559 222.98,871.559 C202.113,871.559 204.834,852.099 191.853,852.099 C178.871,852.099 181.601,871.559 160.734,871.559 C143.405,871.559 132.26,859.074 127.155,846.287 L111.495,846.287 C108.984,854.273 107.611,862.756 107.611,871.559 C107.611,918.01 145.402,955.801 191.853,955.801 z" fill-opacity="0" stroke="#FFFFFF" stroke-width="2"/>
      </g>
      <g>
        <path d="M238.253,887.91 C225.507,897.977 211.515,904.177 191.861,904.177 C172.191,904.177 158.198,897.977 145.453,887.91 L141.308,892.063 C150.802,906.553 168.265,922.104 191.861,922.104 C215.449,922.104 232.904,906.553 242.398,892.063 L238.253,887.91 z" fill="url(#Gradient_1)"/>
        <path d="M238.253,887.91 C225.507,897.977 211.515,904.177 191.861,904.177 C172.191,904.177 158.198,897.977 145.453,887.91 L141.308,892.063 C150.802,906.553 168.265,922.104 191.861,922.104 C215.449,922.104 232.904,906.553 242.398,892.063 L238.253,887.91 z" fill-opacity="0" stroke="#FFFFFF" stroke-width="2"/>
      </g>
    </g>
  </g>
</svg>
