<?xml version="1.0" encoding="UTF-8"?>
<!DOCTYPE svg PUBLIC "-//W3C//DTD SVG 1.1//EN" "http://www.w3.org/Graphics/SVG/1.1/DTD/svg11.dtd">
<svg version="1.1" xmlns="http://www.w3.org/2000/svg" xmlns:xlink="http://www.w3.org/1999/xlink" x="0" y="0" width="1080" height="1920" viewBox="0, 0, 1080, 1920">
  <defs>
    <radialGradient id="Gradient_1" gradientUnits="userSpaceOnUse" cx="269.999" cy="751.606" r="64.596" gradientTransform="matrix(2, 0, 0, 2, 0, 0)">
      <stop offset="0" stop-color="#FF8626"/>
      <stop offset="1" stop-color="#E12E00"/>
    </radialGradient>
  </defs>
  <g id="Layer_1">
    <path d="M0,0 L1080,0 L1080,1920 L0,1920 L0,0 z" fill="#095188"/>
    <g opacity="0.45">
      <path d="M179.272,1176.722 C177.933,1175.718 176.593,1173.206 177.933,1170.861 L184.965,1156.63 C186.137,1153.952 188.816,1153.114 191.327,1154.788 C196.35,1157.802 204.052,1161.821 215.437,1161.821 C223.641,1161.821 227.492,1158.807 227.492,1153.952 C227.492,1148.929 221.298,1144.575 206.898,1138.882 C185.802,1130.846 176.426,1120.968 176.426,1104.392 C176.426,1087.817 188.983,1072.413 215.604,1072.413 C231.678,1072.413 242.059,1076.599 247.919,1080.45 C250.263,1082.291 251.77,1085.137 250.263,1087.984 L244.067,1100.541 C242.394,1103.22 239.547,1103.555 237.203,1102.718 C232.013,1100.374 224.478,1097.193 215.437,1097.193 C208.07,1097.193 205.057,1100.709 205.057,1104.225 C205.057,1109.247 210.581,1111.759 220.627,1116.112 C241.724,1124.651 256.793,1132.186 256.793,1153.952 C256.793,1171.197 242.059,1186.6 214.768,1186.6 C196.685,1186.767 185.467,1181.075 179.272,1176.722 z" fill="#FFFFFF"/>
      <path d="M278.056,1038.257 C278.056,1035.578 280.734,1033.067 283.245,1033.067 L302.332,1033.067 C305.179,1033.067 307.523,1035.746 307.523,1038.257 L307.523,1087.146 C313.048,1082.459 322.424,1077.938 335.484,1077.938 C370.309,1077.938 379.685,1102.048 379.685,1129.506 L379.685,1184.424 C379.685,1187.27 377.007,1189.614 374.495,1189.614 L355.408,1189.614 C352.561,1189.614 350.217,1187.27 350.217,1184.424 L350.217,1129.339 C350.217,1114.27 343.353,1105.062 330.294,1105.062 C317.568,1105.062 310.369,1113.099 307.523,1124.149 L307.523,1184.424 C307.523,1187.438 306.184,1189.614 301.83,1189.614 L283.078,1189.614 C280.399,1189.614 277.888,1187.27 277.888,1184.424 L277.888,1038.257 z" fill="#FFFFFF"/>
      <path d="M531.042,1186.767 C520.159,1186.767 509.778,1184.089 504.756,1182.247 L504.756,1220.756 C504.756,1223.435 502.077,1225.947 499.565,1225.947 L480.478,1225.947 C477.632,1225.947 475.287,1223.267 475.287,1220.756 L475.287,1080.115 C475.287,1077.268 477.632,1074.924 480.478,1074.924 L489.184,1074.924 C491.864,1074.924 493.371,1077.101 494.375,1080.115 L497.221,1088.821 C497.221,1088.821 509.778,1072.58 532.884,1072.58 C562.686,1072.58 585.122,1096.69 585.122,1129.842 C585.122,1161.653 563.691,1186.767 531.042,1186.767 z M504.756,1153.616 C504.756,1153.616 513.796,1159.812 527.526,1159.812 C545.441,1159.812 554.649,1145.078 554.649,1129.842 C554.649,1114.438 545.943,1099.536 528.866,1099.536 C514.634,1099.536 507.1,1108.578 504.756,1114.605 L504.756,1153.616 z" fill="#FFFFFF"/>
      <path d="M643.054,1115.107 C654.103,1115.107 664.149,1118.121 664.149,1118.121 C664.651,1104.225 660.633,1097.527 649.081,1097.527 C639.202,1097.527 624.803,1099.704 618.274,1101.546 C614.758,1102.718 612.581,1100.206 612.079,1096.858 L609.734,1084.635 C608.73,1080.617 610.906,1078.775 613.25,1077.938 C615.595,1076.933 632.84,1072.58 650.588,1072.58 C684.576,1072.58 691.775,1090.328 691.775,1120.13 L691.775,1179.066 C691.775,1181.912 689.431,1184.256 686.585,1184.256 L678.548,1184.256 C676.707,1184.256 675.201,1183.587 673.86,1180.405 L670.846,1173.038 C664.484,1179.233 653.601,1186.767 636.523,1186.767 C614.758,1186.767 599.689,1172.871 599.689,1149.431 C599.521,1130.009 615.427,1115.107 643.054,1115.107 z M643.723,1164.667 C653.434,1164.667 661.973,1157.132 663.313,1153.114 L663.313,1137.041 C663.313,1137.041 655.945,1133.692 647.238,1133.692 C634.681,1133.692 627.817,1139.552 627.817,1149.263 C627.984,1158.639 633.678,1164.667 643.723,1164.667 z" fill="#FFFFFF"/>
      <path d="M719.067,1080.115 C719.067,1077.101 721.746,1074.924 724.257,1074.924 L732.963,1074.924 C735.643,1074.924 736.815,1076.097 737.652,1078.44 L741.67,1089.156 C745.521,1083.63 755.567,1072.58 772.477,1072.58 C785.537,1072.58 796.085,1076.097 793.071,1083.296 L786.039,1099.369 C784.867,1102.048 782.188,1102.885 779.677,1101.713 C777.166,1100.541 774.486,1099.536 769.463,1099.536 C757.576,1099.536 750.544,1107.071 748.702,1110.922 L748.702,1179.066 C748.702,1183.084 746.023,1184.256 742.507,1184.256 L724.257,1184.256 C721.578,1184.256 719.067,1181.912 719.067,1179.066 L719.067,1080.115 z" fill="#FFFFFF"/>
      <path d="M847.82,1072.58 C858.702,1072.58 869.083,1075.259 874.106,1077.101 L874.106,1038.257 C874.106,1035.578 876.786,1033.067 879.297,1033.067 L898.384,1033.067 C901.23,1033.067 903.574,1035.746 903.574,1038.257 L903.574,1178.898 C903.574,1181.744 901.23,1184.089 898.384,1184.089 L889.677,1184.089 C887,1184.089 885.492,1181.912 884.487,1178.898 L881.641,1170.359 C881.641,1170.359 869.083,1186.6 845.978,1186.6 C816.176,1186.6 793.74,1162.49 793.74,1129.339 C793.74,1097.527 815.172,1072.58 847.82,1072.58 z M875.614,1105.564 C875.614,1105.564 866.572,1099.369 852.842,1099.369 C834.928,1099.369 825.719,1114.103 825.719,1129.339 C825.719,1144.742 834.426,1159.644 851.504,1159.644 C865.736,1159.644 873.269,1150.603 875.614,1144.575 L875.614,1105.564 z" fill="#FFFFFF"/>
      <path d="M444.983,1036.248 L440.462,1053.66 C439.792,1056.004 437.783,1057.511 435.439,1057.511 L419.031,1057.511 C416.687,1057.511 414.511,1055.837 414.009,1053.66 L409.488,1036.248 C408.818,1033.737 410.158,1031.058 412.669,1030.053 C415.85,1028.881 420.873,1027.541 427.236,1027.541 C433.598,1027.541 438.621,1028.881 441.801,1030.053 C444.313,1031.058 445.653,1033.569 444.983,1036.248 z" fill="#FFFFFF"/>
      <path d="M448.165,1179.401 L438.12,1079.78 C437.952,1077.101 435.608,1075.092 432.929,1075.092 L421.377,1075.092 C418.697,1075.092 416.353,1077.101 416.186,1079.78 L406.14,1179.401 C405.973,1181.242 406.81,1183.084 408.484,1184.256 L424.223,1194.637 C425.897,1195.809 428.241,1195.809 429.915,1194.637 L445.653,1184.256 C447.496,1183.084 448.333,1181.242 448.165,1179.401 z" fill="#FFFFFF"/>
    </g>
    <g opacity="0.45">
      <g>
        <path d="M540,1374.017 C611.347,1374.017 669.194,1431.864 669.194,1503.211 C669.194,1574.558 611.347,1632.404 540,1632.404 C468.653,1632.404 410.806,1574.558 410.806,1503.211 C410.806,1431.864 468.653,1374.017 540,1374.017 z" fill-opacity="0" stroke="#FFFFFF" stroke-width="2"/>
        <g>
          <path d="M540,1374.017 C468.653,1374.017 410.806,1431.864 410.806,1503.211 C410.806,1574.558 468.653,1632.404 540,1632.404 C611.347,1632.404 669.194,1574.558 669.194,1503.211 C669.194,1431.864 611.347,1374.017 540,1374.017 z" fill="#00508A"/>
          <path d="M540,1374.017 C468.653,1374.017 410.806,1431.864 410.806,1503.211 C410.806,1574.558 468.653,1632.404 540,1632.404 C611.347,1632.404 669.194,1574.558 669.194,1503.211 C669.194,1431.864 611.347,1374.017 540,1374.017 z" fill-opacity="0" stroke="#FFFFFF" stroke-width="2"/>
        </g>
      </g>
      <g>
        <path d="M540,1395.549 C500.261,1395.549 465.553,1417.255 446.905,1449.38 L633.094,1449.38 C614.448,1417.255 579.737,1395.549 540,1395.549 z" fill="#FFFFFF"/>
        <path d="M540,1395.549 C500.261,1395.549 465.553,1417.255 446.905,1449.38 L633.094,1449.38 C614.448,1417.255 579.737,1395.549 540,1395.549 z" fill-opacity="0" stroke="#FFFFFF" stroke-width="2"/>
      </g>
      <g>
        <path d="M540,1610.872 C599.363,1610.872 647.66,1562.576 647.66,1503.211 C647.66,1491.961 645.905,1481.119 642.697,1470.913 L622.673,1470.913 C616.159,1487.255 601.905,1503.211 579.78,1503.211 C553.112,1503.211 556.59,1478.341 540,1478.341 C523.409,1478.341 526.898,1503.211 500.23,1503.211 C478.083,1503.211 463.84,1487.255 457.316,1470.913 L437.302,1470.913 C434.093,1481.119 432.338,1491.961 432.338,1503.211 C432.338,1562.576 480.635,1610.872 540,1610.872 z" fill="#FFFFFF"/>
        <path d="M540,1610.872 C599.363,1610.872 647.66,1562.576 647.66,1503.211 C647.66,1491.961 645.905,1481.119 642.697,1470.913 L622.673,1470.913 C616.159,1487.255 601.905,1503.211 579.78,1503.211 C553.112,1503.211 556.59,1478.341 540,1478.341 C523.409,1478.341 526.898,1503.211 500.23,1503.211 C478.083,1503.211 463.84,1487.255 457.316,1470.913 L437.302,1470.913 C434.093,1481.119 432.338,1491.961 432.338,1503.211 C432.338,1562.576 480.635,1610.872 540,1610.872 z" fill-opacity="0" stroke="#FFFFFF" stroke-width="2"/>
      </g>
      <g>
        <path d="M599.299,1524.108 C583.01,1536.973 565.128,1544.897 540.01,1544.897 C514.872,1544.897 496.989,1536.973 480.701,1524.108 L475.404,1529.415 C487.537,1547.933 509.855,1567.808 540.01,1567.808 C570.155,1567.808 592.463,1547.933 604.596,1529.415 L599.299,1524.108 z" fill="url(#Gradient_1)"/>
        <path d="M599.299,1524.108 C583.01,1536.973 565.128,1544.897 540.01,1544.897 C514.872,1544.897 496.989,1536.973 480.701,1524.108 L475.404,1529.415 C487.537,1547.933 509.855,1567.808 540.01,1567.808 C570.155,1567.808 592.463,1547.933 604.596,1529.415 L599.299,1524.108 z" fill-opacity="0" stroke="#FFFFFF" stroke-width="2"/>
      </g>
    </g>
  </g>
</svg>
