<?xml version="1.0" encoding="UTF-8"?>
<!DOCTYPE svg PUBLIC "-//W3C//DTD SVG 1.1//EN" "http://www.w3.org/Graphics/SVG/1.1/DTD/svg11.dtd">
<svg version="1.1" xmlns="http://www.w3.org/2000/svg" xmlns:xlink="http://www.w3.org/1999/xlink" x="0" y="0" width="512" height="512" viewBox="0, 0, 512, 512">
  <g id="Layer_1" transform="translate(-0, 0)">
    <path d="M95.719,248.397 C114.352,217.505 136.315,187.867 162.139,162.091 C187.963,136.315 217.553,114.303 248.446,95.671 C130.329,24.666 0,0 0,0 C0,0 24.569,130.281 95.719,248.397 z M416.812,264.471 C398.179,295.268 376.265,324.809 350.537,350.537 C324.809,376.265 295.268,398.179 264.471,416.812 C382.347,487.527 512,512 512,512 C512,512 487.575,382.395 416.812,264.471 z" fill="#387A22"/>
    <path d="M168.623,168.623 C40.744,296.406 0,512 0,512 C0,512 215.353,471.401 343.377,343.377 C471.401,215.401 512,-0 512,-0 C512,-0 296.744,40.502 168.623,168.623 z M92.784,333.094 L176.25,335.701 L178.857,419.168 L92.784,333.094 z M179.485,246.393 L262.952,249 L265.558,332.467 L179.485,246.393 z M266.186,159.692 L349.653,162.299 L352.259,245.766 L266.186,159.692 z" fill="#529C3B"/>
  </g>
</svg>
