<?xml version="1.0" encoding="UTF-8"?>
<!DOCTYPE svg PUBLIC "-//W3C//DTD SVG 1.1//EN" "http://www.w3.org/Graphics/SVG/1.1/DTD/svg11.dtd">
<svg version="1.1" xmlns="http://www.w3.org/2000/svg" xmlns:xlink="http://www.w3.org/1999/xlink" x="0" y="0" width="1920" height="1080" viewBox="0, 0, 1920, 1080">
  <g id="Background">
    <rect x="0" y="0" width="1920" height="1080" fill="#FFFFFF"/>
  </g>
  <g id="Layer_1">
    <g>
      <path d="M0.5,0.5 L1920.5,0.5 L1920.5,1080.5 L0.5,1080.5 L0.5,0.5 z" fill="#FFFFFF"/>
      <g>
        <path d="M0.5,0.5 L1920.5,0.5 L1920.5,1080.5 L0.5,1080.5 L0.5,0.5 z" fill="#FFFFFF"/>
        <path d="M0.5,0.5 L1920.5,0.5 L1920.5,1080.5 L0.5,1080.5 L0.5,0.5 z" fill-opacity="0" stroke="#A6A6A6" stroke-width="28" stroke-linecap="round" stroke-linejoin="round"/>
      </g>
    </g>
    <g>
      <path d="M1045.359,365.673 C1122.334,365.673 1189.03,407.526 1225.866,469.204 L1442.842,469.449 L1442.842,352.945 C1442.842,309.746 1407.719,274.624 1364.398,274.624 L555.358,274.624 C512.158,274.624 477.158,309.746 477.158,352.945 L477.403,468.47 L864.851,468.715 C901.932,407.281 968.383,365.673 1045.359,365.673" fill="#830E00"/>
      <path d="M680.061,237.665 L608.102,237.665 L599.781,263.61 L686.057,263.61 z" fill="#830E00"/>
      <path d="M1329.03,223.837 L1233.209,223.837 L1216.198,263.854 L1344.572,263.854 z" fill="#830E00"/>
      <path d="M1075.708,194.099 L842.946,194.099 L794.973,264.344 L1119.764,264.344 L1075.708,194.099 z M1000.079,250.026 L917.474,250.026 L917.474,210.131 L1000.079,210.131 L1000.079,250.026 z" fill="#830E00"/>
      <path d="M1237.002,490.009 C1248.995,516.442 1256.093,545.568 1256.093,576.53 C1256.093,692.911 1161.74,787.387 1045.236,787.387 C928.732,787.387 834.379,693.034 834.379,576.53 C834.379,545.568 841.355,516.442 853.47,489.886 L477.036,489.886 L477.036,807.579 C477.036,850.779 511.913,885.901 555.235,885.901 L1364.275,885.901 C1407.597,885.901 1442.72,850.779 1442.72,807.579 L1442.964,490.009 L1237.002,490.009 z" fill="#830E00"/>
      <path d="M1160.271,507.264 C1156.967,501.39 1152.806,495.883 1148.278,490.62 C1123.68,461.005 1086.845,441.669 1045.236,441.669 C1003.628,441.669 966.792,460.883 942.194,490.376 C937.666,495.76 933.628,501.267 929.956,507.264 C917.474,527.579 910.131,551.075 910.131,576.53 C910.131,650.935 970.586,711.39 1045.236,711.39 C1119.52,711.39 1180.097,651.058 1180.097,576.53 C1180.097,551.075 1172.754,527.579 1160.271,507.264" fill="#830E00"/>
    </g>
    <path d="M1547.877,1053.687 L1665.958,934.803 L1547.075,816.956 L1665.316,697.91 L1546.27,579.669 L1428.029,698.715 L1309.379,580.633 L1191.298,699.517 L1310.182,817.364 L1191.999,936.351 L1311.044,1054.592 L1429.227,935.605 z" fill="#D11D00"/>
  </g>
</svg>
