<?xml version="1.0" encoding="UTF-8" standalone="no"?>
<!-- Created with Inkscape (http://www.inkscape.org/) -->

<svg
   xmlns:dc="http://purl.org/dc/elements/1.1/"
   xmlns:cc="http://creativecommons.org/ns#"
   xmlns:rdf="http://www.w3.org/1999/02/22-rdf-syntax-ns#"
   xmlns:svg="http://www.w3.org/2000/svg"
   xmlns="http://www.w3.org/2000/svg"
   xmlns:sodipodi="http://sodipodi.sourceforge.net/DTD/sodipodi-0.dtd"
   xmlns:inkscape="http://www.inkscape.org/namespaces/inkscape"
   width="1000"
   height="1000"
   id="svg3016"
   version="1.1"
   inkscape:version="0.48.3.1 r9886"
   sodipodi:docname="x-datasource.svg">
  <defs
     id="defs5498" />
  <sodipodi:namedview
     inkscape:window-height="816"
     inkscape:window-width="1204"
     inkscape:pageshadow="2"
     inkscape:pageopacity="0.0"
     borderopacity="1.0"
     bordercolor="#666666"
     pagecolor="#ffffff"
     id="base"
     showgrid="false"
     showguides="true"
     inkscape:guide-bbox="true"
     inkscape:zoom="0.454"
     inkscape:cx="635.48994"
     inkscape:cy="500"
     inkscape:window-x="2262"
     inkscape:window-y="161"
     inkscape:current-layer="layer1"
     inkscape:window-maximized="0">
    <sodipodi:guide
       orientation="horizontal"
       position="200"
       id="guide5596" />
  </sodipodi:namedview>
  <metadata
     id="metadata5594">
    <rdf:RDF>
      <cc:Work
         rdf:about="">
        <dc:format>image/svg+xml</dc:format>
        <dc:type
           rdf:resource="http://purl.org/dc/dcmitype/StillImage" />
        <dc:title></dc:title>
      </cc:Work>
    </rdf:RDF>
  </metadata>
  <g
     inkscape:label="Layer 1"
     inkscape:groupmode="layer"
     id="layer1">
    <path
       d="m 663.8823,494.20839 c 0,99.52162 -80.67109,180.11469 -180.15386,180.11469 -99.56063,0 -180.1927,-80.59307 -180.1927,-180.11469 0,-99.48261 80.63207,-180.11469 180.1927,-180.11469 99.48277,0 180.15386,80.63208 180.15386,180.11469 m 252.0433,-72.0068 -43.20404,0 c -19.82627,0 -40.86239,-15.49423 -46.75566,-34.42277 l -24.82177,-60.33743 c -9.32783,-17.44555 -5.50299,-43.2042 8.42999,-57.2153 L 840.32837,239.589 c 14.01105,-14.05009 14.01105,-36.99849 0,-51.00959 l -51.0878,-50.93174 c -13.97209,-14.01109 -36.88165,-14.01109 -50.89275,0 l -30.75409,30.63709 c -13.93308,14.01109 -39.76975,17.83577 -57.25432,8.4691 l -60.22024,-24.82191 c -18.8897,-5.85419 -34.38377,-26.89041 -34.38377,-46.71669 l 0,-43.243065 c 0,-19.787268 -16.27479,-36.061905 -36.10107,-36.061905 l -72.04581,0 c -19.82628,0 -36.06192,16.274637 -36.06192,36.061905 l 0,43.243065 c 0,19.82628 -15.45521,40.8625 -34.38375,46.71669 l -60.29842,24.82191 c -17.52373,9.36667 -43.20421,5.58099 -57.21531,-8.4691 l -30.7541,-30.63709 c -14.01109,-14.01109 -36.88148,-14.01109 -50.89258,0 l -50.93173,50.93174 c -14.0891,14.0111 -14.0891,36.9595 0,50.97059 l 30.55907,30.67609 c 14.0501,14.0111 17.91378,39.76975 8.46909,57.2153 l -24.78289,60.37643 c -5.93237,18.92854 -26.89041,34.42277 -46.716698,34.42277 l -43.282052,-0.0326 c -19.826282,0 -36.062075,16.19662 -36.062075,36.0229 l 0,72.04598 c 0,19.82612 16.235793,36.06191 36.062075,36.06191 l 43.282052,0 c 19.826288,0.0326 40.784328,15.53323 46.638688,34.42276 l 24.8609,60.33742 c 9.40569,17.48458 5.58101,43.32123 -8.46909,57.25431 l -30.63709,30.63698 c -14.01108,14.0501 -14.01108,36.95966 0,51.00975 l 51.00975,50.97075 c 14.0111,14.0111 36.88149,14.0111 50.89258,0 l 30.7541,-30.67609 c 13.97208,-13.97209 39.69158,-17.79676 57.05913,-8.35208 l 60.4546,24.82189 c 18.92854,5.8932 34.38375,26.89043 34.38375,46.71671 l 0,43.12603 c 0,19.78728 16.23564,36.02291 36.06192,36.02291 l 72.04581,0 c 19.82628,0 36.10107,-16.23563 36.10107,-36.02291 l 0,-43.12603 c 0,-19.82628 15.49407,-40.82351 34.38377,-46.71671 l 60.41543,-24.82189 c 17.40657,-9.44468 43.20422,-5.62001 57.25431,8.35208 l 30.55891,30.67609 c 14.0111,14.0111 36.92066,14.0111 50.89275,0 l 51.0878,-50.9707 c 14.01105,-14.05009 14.01105,-36.95965 0,-51.00975 l -30.75425,-30.63643 c -13.93298,-13.93293 -17.75782,-39.76958 -8.42999,-57.25415 l 24.82177,-60.33743 c 5.89327,-18.8897 27.04653,-34.38376 46.75566,-34.38376 l 43.20404,0 c 19.82627,0 35.9839,-16.19678 35.9839,-36.02291 l 0,-72.12398 c 0,-19.82628 -16.15763,-36.0229 -35.9839,-36.0229"
       style="fill:#000000;fill-opacity:1;fill-rule:nonzero;stroke:none"
       id="path180"
       inkscape:connector-curvature="0" />
  </g>
</svg>
