<?xml version="1.0" encoding="UTF-8" standalone="no"?>
<!-- Created with Inkscape (http://www.inkscape.org/) -->

<svg
   xmlns:dc="http://purl.org/dc/elements/1.1/"
   xmlns:cc="http://creativecommons.org/ns#"
   xmlns:rdf="http://www.w3.org/1999/02/22-rdf-syntax-ns#"
   xmlns:svg="http://www.w3.org/2000/svg"
   xmlns="http://www.w3.org/2000/svg"
   xmlns:sodipodi="http://sodipodi.sourceforge.net/DTD/sodipodi-0.dtd"
   xmlns:inkscape="http://www.inkscape.org/namespaces/inkscape"
   width="64px"
   height="64px"
   id="svg3060"
   version="1.1"
   inkscape:version="0.48.2 r9819"
   sodipodi:docname="New document 3">
  <defs
     id="defs3062" />
  <sodipodi:namedview
     id="base"
     pagecolor="#ffffff"
     bordercolor="#666666"
     borderopacity="1.0"
     inkscape:pageopacity="0.0"
     inkscape:pageshadow="2"
     inkscape:zoom="5.5"
     inkscape:cx="32"
     inkscape:cy="32"
     inkscape:current-layer="layer1"
     showgrid="true"
     inkscape:document-units="px"
     inkscape:grid-bbox="true"
     inkscape:window-width="1238"
     inkscape:window-height="814"
     inkscape:window-x="1743"
     inkscape:window-y="45"
     inkscape:window-maximized="0" />
  <metadata
     id="metadata3065">
    <rdf:RDF>
      <cc:Work
         rdf:about="">
        <dc:format>image/svg+xml</dc:format>
        <dc:type
           rdf:resource="http://purl.org/dc/dcmitype/StillImage" />
        <dc:title></dc:title>
      </cc:Work>
    </rdf:RDF>
  </metadata>
  <g
     id="layer1"
     inkscape:label="Layer 1"
     inkscape:groupmode="layer">
    <g
       id="g3150"
       transform="matrix(0.59306104,0,0,0.59306104,3.0495716,-9.8887532)"
       style="fill:#000000">
      <polygon
         transform="translate(5.2599545,21.272727)"
         id="polygon3"
         points="86.571,20.833 47.682,20.833 47.682,26.389 81.016,26.389 81.016,94.444 31.016,94.444 31.016,38.984 25.459,36.846 25.459,94.444 25.459,100 81.016,100 86.571,100 86.571,26.389 "
         style="fill:#000000" />
      <polygon
         transform="translate(5.2599545,21.272727)"
         id="polygon5"
         points="43.516,29.212 43.516,18.811 31.016,23.62 18.516,18.811 18.516,29.212 31.016,34.022 "
         style="fill:#000000" />
      <polygon
         transform="translate(5.2599545,21.272727)"
         id="polygon7"
         points="9.944,12.72 9.942,12.721 8.577,12.197 8.553,12.185 8.544,12.202 0,27.19 3.932,28.712 10.182,17.698 10.182,31.094 14.349,32.706 14.349,14.416 9.961,12.728 "
         style="fill:#000000" />
      <polygon
         transform="translate(5.2599545,21.272727)"
         id="polygon9"
         points="8.565,12.177 25.212,5.751 31.016,7.983 14.371,14.41 31.016,20.833 58.099,10.417 31.016,0 3.932,10.417 "
         style="fill:#000000" />
      <rect
         id="rect11"
         height="2.777"
         width="25"
         y="60.161728"
         x="41.830956"
         style="fill:#000000" />
      <rect
         id="rect13"
         height="2.777"
         width="25"
         y="71.272728"
         x="41.830956"
         style="fill:#000000" />
      <rect
         id="rect15"
         height="2.779"
         width="25"
         y="82.382729"
         x="41.830956"
         style="fill:#000000" />
      <rect
         id="rect17"
         height="2.777"
         width="25"
         y="93.495728"
         x="41.830956"
         style="fill:#000000" />
      <rect
         id="rect19"
         height="2.777"
         width="25"
         y="104.60573"
         x="41.830956"
         style="fill:#000000" />
      <polygon
         transform="translate(5.2599545,21.272727)"
         id="polygon21"
         points="69.904,36.111 69.904,38.889 67.126,38.889 67.126,41.667 69.904,41.667 69.904,44.444 72.682,44.444 72.682,41.667 75.459,41.667 75.459,38.889 72.682,38.889 72.682,36.111 "
         style="fill:#000000" />
      <rect
         id="rect23"
         height="2.777"
         width="8.3330002"
         y="71.272728"
         x="72.385956"
         style="fill:#000000" />
      <polygon
         transform="translate(5.2599545,21.272727)"
         id="polygon25"
         points="67.126,63.89 69.904,63.89 69.904,66.667 72.682,66.667 72.682,63.89 75.459,63.89 75.459,61.11 72.682,61.11 72.682,58.333 69.904,58.333 69.904,61.11 67.126,61.11 "
         style="fill:#000000" />
      <rect
         id="rect27"
         height="2.777"
         width="8.3330002"
         y="93.495728"
         x="72.385956"
         style="fill:#000000" />
      <polygon
         transform="translate(5.2599545,21.272727)"
         id="polygon29"
         points="67.126,86.11 69.904,86.11 69.904,88.89 72.682,88.89 72.682,86.11 75.459,86.11 75.459,83.333 72.682,83.333 72.682,80.556 69.904,80.556 69.904,83.333 67.126,83.333 "
         style="fill:#000000" />
    </g>
  </g>
</svg>
