<?xml version="1.0" encoding="UTF-8"?>
<!DOCTYPE svg PUBLIC "-//W3C//DTD SVG 1.1//EN" "http://www.w3.org/Graphics/SVG/1.1/DTD/svg11.dtd">
<svg version="1.1" xmlns="http://www.w3.org/2000/svg" xmlns:xlink="http://www.w3.org/1999/xlink" x="0" y="0" width="204.8" height="204.8" viewBox="0, 0, 1024, 1024">
  <g id="Layer_1">
    <path d="M15.122,-0 L1008.878,-0 C1017.23,-0 1024,7.781 1024,17.379 L1024,1006.621 C1024,1016.219 1017.23,1024 1008.878,1024 L15.122,1024 C6.77,1024 -0,1016.219 -0,1006.621 L-0,17.379 C-0,7.781 6.77,-0 15.122,-0 z" fill="#C62828"/>
    <path d="M512.011,66.714 C368.305,66.714 251.828,183.224 251.828,326.906 C251.828,470.603 368.305,587.096 512.011,587.096 C520.452,587.096 528.809,586.69 537.05,585.887 C515.372,539.998 480.731,501.416 437.769,475.023 L438.077,474.535 C382.614,441.64 346.435,387.796 346.435,326.906 C346.435,226.767 444.223,145.581 564.877,145.581 C648.643,145.581 721.359,184.733 758.011,242.209 C722.86,140.107 626.044,66.714 512.011,66.714" fill="#FFFFFF"/>
    <path d="M320.009,437.572 L354.355,519.977 L354.877,533.954 C357.694,536.099 360.494,538.259 363.413,540.289 C364.606,541.109 365.779,541.95 366.984,542.757 C371.871,546.05 376.857,549.252 381.987,552.216 C396.358,558.346 409.654,566.973 421.094,578.412 C476.934,634.243 469.065,732.643 403.508,798.2 C337.963,863.745 239.564,871.604 183.725,815.79 C127.893,759.942 135.765,661.551 201.306,596.01 C236.55,560.766 281.226,542.429 323.732,541.531 C287.967,516.996 258.625,483.822 238.79,444.94 C125.855,473.325 42.229,575.382 42.229,697.087 C42.229,840.796 158.713,957.286 302.419,957.286 C446.109,957.286 562.602,840.796 562.602,697.087 C562.602,559.326 455.494,446.634 320.009,437.572" fill="#FFFFFF"/>
    <path d="M859.784,424.054 C859.784,467.918 824.24,503.465 780.369,503.465 C736.534,503.465 700.973,467.918 700.973,424.054 C700.973,380.203 736.534,344.639 780.369,344.639 C824.24,344.639 859.784,380.203 859.784,424.054" fill="#FFFFFF"/>
    <path d="M932.373,537.456 C954.953,590.692 954.866,658.656 926.867,722.987 C878.879,833.158 767.269,890.801 677.545,851.74 C633.137,832.403 602.455,792.997 588.572,744.768 C580.085,790.599 559.605,832.178 530.473,866.192 C578.015,917.727 645.962,950.13 721.585,950.13 C865.29,950.13 981.771,833.621 981.771,689.94 C981.771,632.965 963.416,580.314 932.373,537.456 z M601.984,581.532 C603.899,577.125 605.936,572.836 608.068,568.625 C609.261,566.219 610.561,563.918 611.836,561.577 C613.104,559.223 614.329,556.85 615.658,554.57 C615.994,553.992 616.351,553.451 616.683,552.868 C621.505,544.725 626.663,536.906 632.169,529.51 L632.108,529.489 C645.937,510.838 661.805,494.699 679.034,481.513 C645.826,498.476 606.719,508.246 564.877,508.246 C543.503,508.246 522.945,505.52 503.445,500.78 C543.085,535.237 572.209,581.471 585.3,634.071 C588.908,616.548 594.419,598.897 601.984,581.532" fill="#FFFFFF"/>
  </g>
</svg>
