<?xml version="1.0" encoding="utf-8"?>
<!-- Generator: Adobe Illustrator 20.1.0, SVG Export Plug-In . SVG Version: 6.00 Build 0)  -->
<svg version="1.1" id="Layer_1" xmlns="http://www.w3.org/2000/svg" xmlns:xlink="http://www.w3.org/1999/xlink" x="0px" y="0px"
	 viewBox="0 0 250.3 250.3" style="enable-background:new 0 0 250.3 250.3;" xml:space="preserve">
<style type="text/css">
	.st0{fill:#FFFFFF;}
	.st1{fill:#00508A;}
	.st2{fill:#EA660A;}
</style>
<rect class="st1" width="250.3" height="250.3"/>
<path class="st2" d="M143.6,46.9l-4.7,18.1c-0.6,2.4-2.8,4.1-5.2,4.1h-17.1c-2.5,0-4.6-1.7-5.2-4.1l-4.7-18.1
	c-0.7-2.7,0.7-5.5,3.3-6.4c3.3-1.2,8.5-2.6,15.1-2.6s11.8,1.3,15.1,2.6C142.8,41.4,144.3,44.2,143.6,46.9z"/>
<path class="st0" d="M146.9,195.6L136.5,92c-0.2-2.8-2.6-4.9-5.4-4.9h-11.9c-2.8,0-5.1,2.1-5.4,4.9l-10.4,103.6
	c-0.2,2,0.7,3.9,2.4,5l16.4,10.8c1.8,1.2,4.2,1.2,6,0l16.4-10.8C146.1,199.5,147.1,197.6,146.9,195.6z"/>
</svg>
